# xmcd CD database file
#
# Track frame offsets:
#	150
#	16162
#	32850
#	49350
#	63412
#	79725
#	93975
#	109537
#	124650
#	142650
#	158812
#	176025
#	189675
#	201675
#	218025
#	236175
#
# Disc length: 3334 seconds
#
# Revision: 0
# Processed by: cddbd v1.5PL3 Copyright (c) Steve Scherf et al.
# Submitted via: CDex 1.51
#
DISCID=e10d0410
DTITLE=西田佐知子 - 全曲集
DYEAR=1900
DGENRE=Other
TTITLE0=アカシアの雨がやむとき
TTITLE1=エリカの花散るとき
TTITLE2=死ぬまで一緒に
TTITLE3=夜が切ない
TTITLE4=東京ブルース
TTITLE5=裏町酒場
TTITLE6=博多ブルース
TTITLE7=くれないホテル
TTITLE8=女の意地
TTITLE9=赤坂の夜は更けて
TTITLE10=コーヒー･ルンバ
TTITLE11=ウナ・セラ・ディ・東京
TTITLE12=涙のかわくまで
TTITLE13=ベッドで煙草を吸わないで
TTITLE14=神戸で死ねたら
TTITLE15=星のナイト・クラブ
EXTD=
EXTT0=
EXTT1=
EXTT2=
EXTT3=
EXTT4=
EXTT5=
EXTT6=
EXTT7=
EXTT8=
EXTT9=
EXTT10=
EXTT11=
EXTT12=
EXTT13=
EXTT14=
EXTT15=
PLAYORDER=
